<?xml version="1.0" standalone="no"?>
<!DOCTYPE svg PUBLIC "-//W3C//DTD SVG 20010904//EN"
 "http://www.w3.org/TR/2001/REC-SVG-20010904/DTD/svg10.dtd">
<svg version="1.0" xmlns="http://www.w3.org/2000/svg"
 width="500.000000pt" height="500.000000pt" viewBox="0 0 500.000000 500.000000"
 preserveAspectRatio="xMidYMid meet">
<metadata>
Created by potrace 1.16, written by Peter Selinger 2001-2019
</metadata>
<g transform="translate(0.000000,500.000000) scale(0.100000,-0.100000)"
fill="#000000" stroke="none">
<path d="M205 4980 c-22 -11 -51 -37 -65 -58 l-25 -37 -5 -1173 -5 -1172 -34
-18 c-19 -9 -43 -33 -53 -52 -17 -33 -18 -89 -18 -1198 0 -1222 -1 -1204 43
-1240 19 -16 182 -19 1081 -21 l640 -2 30 31 31 30 3 920 2 920 950 0 950 0 0
-49 c0 -28 5 -53 10 -56 13 -8 13 -45 0 -45 -6 0 -10 -36 -10 -89 0 -50 5 -93
10 -96 7 -4 10 -257 10 -726 0 -697 1 -721 20 -759 11 -21 34 -49 52 -62 l33
-23 510 0 510 0 37 28 c71 54 68 22 68 852 0 485 3 746 10 750 16 10 13 282
-3 288 -9 3 -9 9 0 26 15 25 17 111 3 111 -6 0 -10 56 -10 148 0 175 -13 214
-81 259 -42 28 -44 28 -221 31 l-178 4 0 1186 0 1187 -23 40 c-13 22 -40 49
-62 62 l-40 23 -2065 0 c-2045 0 -2065 0 -2105 -20z m1195 -1768 l0 -79 -50
-1 c-43 -1 -53 3 -66 24 -13 19 -15 32 -8 57 8 28 15 32 47 35 29 3 37 7 37
23 0 12 7 19 20 19 18 0 20 -7 20 -78z m310 28 c42 -42 11 -118 -45 -108 -21
4 -25 1 -25 -18 0 -17 -6 -24 -20 -24 -18 0 -20 7 -20 81 0 75 2 81 19 76 10
-2 25 -1 32 4 22 14 37 11 59 -11z m1561 10 c13 -8 25 -7 39 0 32 17 62 -20
58 -73 -4 -59 -32 -58 -36 1 -3 34 -7 43 -20 40 -12 -2 -18 -15 -20 -46 -2
-28 -8 -42 -17 -42 -9 0 -15 14 -17 42 -2 31 -8 44 -20 46 -15 3 -18 -4 -18
-43 0 -39 -3 -46 -17 -43 -14 3 -19 15 -21 62 -3 54 -1 58 16 54 11 -3 26 -2
33 3 18 11 17 11 40 -1z m-589 -17 c22 -20 23 -51 2 -82 -13 -18 -24 -22 -50
-19 -30 4 -34 1 -34 -19 0 -14 -6 -23 -15 -23 -12 0 -15 15 -15 79 l0 78 47 1
c31 1 53 -4 65 -15z m1398 -64 c0 -72 -2 -79 -20 -79 -14 0 -20 7 -20 23 0 20
-4 23 -28 19 -51 -7 -79 47 -52 99 9 15 21 19 65 18 l55 -2 0 -78z m-2224
-774 c4 -10 10 -12 18 -7 14 12 46 11 46 0 0 -5 6 -6 13 -1 6 4 35 9 62 9 28
1 58 5 68 9 12 5 17 2 17 -10 0 -15 3 -15 15 -5 20 16 39 1 33 -26 -3 -16 -13
-19 -61 -19 -45 -1 -57 2 -57 15 -1 13 -2 13 -10 -1 -6 -11 -21 -15 -45 -13
-19 1 -35 -2 -35 -7 0 -5 -9 -9 -20 -9 -11 0 -20 5 -20 11 0 5 -5 7 -10 4 -14
-9 -40 20 -40 44 0 24 18 28 26 6z m849 5 c3 -5 12 -7 20 -3 9 3 22 0 30 -7
12 -10 15 -9 15 4 0 9 5 16 11 16 6 0 9 -14 6 -32 -3 -30 -5 -32 -50 -34 -35
-2 -49 2 -57 14 -8 14 -9 14 -10 2 0 -16 -65 -21 -87 -7 -8 5 -13 4 -13 -2 0
-19 -20 -12 -21 7 0 14 -2 14 -9 -3 -6 -13 -9 -15 -9 -5 -1 10 -4 11 -9 3 -4
-6 -23 -10 -42 -9 -23 2 -39 -3 -47 -13 -10 -14 -14 -11 -26 18 -14 32 -14 32
-21 10 -5 -15 -9 -19 -13 -11 -3 9 -9 10 -18 2 -15 -13 -45 -3 -45 15 0 7 7
18 15 25 12 10 18 10 30 0 8 -7 15 -8 15 -3 0 16 110 10 120 -7 8 -13 10 -13
10 2 0 12 8 16 30 16 17 -1 33 -5 36 -10 3 -5 12 -4 20 3 11 9 17 9 29 -1 9
-8 15 -9 15 -2 0 6 9 9 20 7 11 -2 22 0 25 6 8 12 22 12 30 -1z m567 -147
c-266 -2 -698 -2 -960 0 -262 1 -45 2 483 2 528 0 743 -1 477 -2z"/>
</g>
</svg>
